<svg width="176" height="36" viewBox="0 0 176 36" fill="none" xmlns="http://www.w3.org/2000/svg">
<g clip-path="url(#clip0_50_76)">
<path d="M87.55 17.7512V0H106.778C109.069 0 110.706 0.497696 111.769 1.49309C112.833 2.48848 113.406 3.73272 113.406 5.30876C113.406 6.88479 112.833 8.21198 111.769 9.20737C110.706 10.2028 108.987 10.7005 106.696 10.7005H89.1864V17.8341H87.55V17.7512ZM106.696 1.57604H89.1864V9.12442H106.696C110.051 9.12442 111.688 7.88019 111.688 5.30876C111.688 4.14747 111.278 3.23502 110.542 2.57143C109.724 1.90783 108.415 1.57604 106.696 1.57604ZM117.497 17.7512V0H142.207V1.49309H119.133V8.12903H139.671V9.53917H119.133V16.1751H142.207V17.6682H117.497V17.7512ZM147.444 17.7512V0H166.263C168.554 0 170.191 0.497696 171.254 1.49309C172.318 2.48848 172.891 3.73272 172.891 5.30876C172.891 6.88479 172.318 8.21198 171.254 9.12442C170.191 10.1198 168.472 10.5346 166.181 10.5346H163.154L176 17.6682H173.136L160.536 10.5346H149.162V17.6682H147.444V17.7512ZM166.181 1.57604H149.08V9.20737H166.181C169.536 9.20737 171.172 7.96313 171.172 5.39171C171.172 4.23042 170.763 3.31797 169.945 2.65438C169.209 1.90783 167.9 1.57604 166.181 1.57604ZM59.4031 9.29032C64.2306 4.31336 70.94 1.49309 77.8131 1.49309H82.6406V0H77.8131C70.5309 0 63.4942 2.98618 58.4212 8.29493C53.5937 13.2719 46.8842 16.0922 40.0112 16.0922H35.1836V17.5853H40.0112C47.2934 17.5853 54.3301 14.5161 59.4031 9.29032ZM31.0107 17.7512H28.9651L25.9377 14.1014L24.7922 12.6912L15.4644 1.41014L6.30033 12.6083L23.7285 13.3548L5.07299 14.1843L2.12738 17.8341H0L14.5644 0H16.3645L31.0107 17.7512Z" fill="white"/>
<path d="M5.07299 14.1014L2.04556 17.7512H0L14.5644 0H16.3645L30.9289 17.7512H28.8833L25.9377 14.1014L24.7922 12.6912L15.4644 1.41014L6.2185 12.6912L5.07299 14.1014Z" fill="white"/>
<path d="M87.55 17.7512V0H106.778C109.069 0 110.706 0.497696 111.769 1.49309C112.833 2.48848 113.406 3.73272 113.406 5.30876C113.406 6.88479 112.833 8.21198 111.769 9.20737C110.706 10.2028 108.988 10.7005 106.696 10.7005H89.1865V17.8341H87.55V17.7512ZM106.696 1.57604H89.1865V9.12442H106.696C110.051 9.12442 111.688 7.88019 111.688 5.30876C111.688 4.14747 111.279 3.23502 110.542 2.57143C109.724 1.90783 108.415 1.57604 106.696 1.57604Z" fill="white"/>
<path d="M117.497 17.7512V0H142.207V1.49309H119.134V8.12903H139.671V9.53917H119.134V16.1751H142.207V17.6682H117.497V17.7512Z" fill="white"/>
<path d="M147.444 17.7512V0H166.263C168.554 0 170.191 0.497696 171.254 1.49309C172.318 2.48848 172.891 3.73272 172.891 5.30876C172.891 6.88479 172.318 8.21198 171.254 9.12442C170.191 10.1198 168.472 10.5346 166.181 10.5346H163.154L176 17.6682H173.136L160.536 10.5346H149.162V17.6682H147.444V17.7512ZM166.181 1.57604H149.081V9.20737H166.181C169.536 9.20737 171.173 7.96313 171.173 5.39171C171.173 4.23041 170.763 3.31797 169.945 2.65438C169.209 1.90783 167.9 1.57604 166.181 1.57604Z" fill="white"/>
<path d="M39.9293 17.5853H35.1018V16.0922H39.9293C46.8842 16.0922 53.5937 13.2719 58.3394 8.29493C63.4942 2.98618 70.5309 0 77.8949 0H82.7224V1.49309H77.8949C70.94 1.49309 64.2306 4.31336 59.4849 9.29032C54.3301 14.5161 47.2933 17.5853 39.9293 17.5853Z" fill="white"/>
<path d="M4.41846 12.5254L23.6467 13.3549L4.41846 14.1844V12.5254Z" fill="white"/>
<path d="M22.583 30.4424H24.7922C26.1014 30.4424 26.756 30.9401 26.756 32.0184C26.756 33.0968 26.1014 33.5945 24.7922 33.5945H23.1558V35.8341H22.6648V30.4424H22.583ZM24.6286 33.0968C25.6923 33.0968 26.1014 32.8479 26.1014 32.0184C26.1014 31.1889 25.6104 30.9401 24.6286 30.9401H23.0739V33.0968H24.6286Z" fill="white"/>
<path d="M29.9471 30.4424H32.4836C33.7927 30.4424 34.3655 30.9401 34.3655 31.9355C34.3655 32.682 34.12 33.0968 33.4654 33.2627C34.0382 33.3456 34.2018 33.6774 34.2836 34.258C34.3655 35.0046 34.2836 35.5023 34.5291 35.8341H33.8745C33.7109 35.3364 33.7927 34.7557 33.7109 34.258C33.6291 33.6774 33.3018 33.5115 32.6472 33.5115H30.438V35.8341H29.8652V30.4424H29.9471ZM30.5198 30.9401V33.0138H32.4836C33.4654 33.0138 33.9564 32.765 33.9564 31.9355C33.9564 31.106 33.4654 30.9401 32.4836 30.9401H30.5198Z" fill="white"/>
<path d="M37.9656 30.4424H42.0567V30.9401H38.4565V32.8479H41.7294V33.3456H38.4565V35.3364H42.0567V35.8341H37.9656V30.4424Z" fill="white"/>
<path d="M45.3296 30.4424H46.1478L48.4388 35.3364L50.7299 30.4424H51.5481V35.8341H51.0572V30.8571L48.7661 35.8341H48.1934L45.9023 30.8571L45.9842 35.8341H45.4932V30.4424H45.3296Z" fill="white"/>
<path d="M55.1484 30.4424H55.6386V35.8341H55.1484V30.4424Z" fill="white"/>
<path d="M59.8122 30.4423V33.7603C59.8122 34.9216 60.385 35.5022 61.6123 35.5022C62.8397 35.5022 63.4124 35.0045 63.4124 33.7603V30.4423H63.9852V33.9262C63.9852 35.2534 63.1669 35.9999 61.6123 35.9999C60.0577 35.9999 59.3213 35.2534 59.3213 33.8432V30.3594H59.8122V30.4423Z" fill="white"/>
<path d="M67.5854 30.4424H68.4037L70.6947 35.3364L72.9857 30.4424H73.804V35.8341H73.313V30.8571L71.022 35.8341H70.3674L68.0764 30.8571L68.1582 35.8341H67.6673V30.4424H67.5854Z" fill="white"/>
<path d="M81.9861 30.4424H82.4763V35.8341H81.9861V30.4424Z" fill="white"/>
<path d="M91.1503 30.4424V35.8341H90.4139L86.7319 30.9401V35.8341H86.241V30.4424H86.8955L90.6594 35.3364V30.4424H91.1503Z" fill="white"/>
<path d="M99.6598 30.4424V35.8341H99.0052L95.3232 30.9401V35.8341H94.8323V30.4424H95.4869L99.2507 35.3364V30.4424H99.6598Z" fill="white"/>
<path d="M105.878 35.9999C104.16 35.9999 103.096 34.9216 103.096 33.1797C103.096 31.4377 104.16 30.3594 105.878 30.3594C107.596 30.3594 108.66 31.4377 108.66 33.1797C108.66 34.9216 107.596 35.9999 105.878 35.9999ZM108.169 33.1797C108.169 31.6866 107.351 30.8571 105.878 30.8571C104.405 30.8571 103.587 31.7695 103.587 33.1797C103.587 34.6727 104.405 35.5022 105.878 35.5022C107.351 35.5022 108.169 34.5898 108.169 33.1797Z" fill="white"/>
<path d="M111.279 30.4424H111.851L113.979 35.4193L116.106 30.4424H116.679L114.306 35.8341H113.651L111.279 30.4424Z" fill="white"/>
<path d="M121.097 30.4424H121.67L124.125 35.8341H123.552L122.816 34.1751H119.87L119.134 35.8341H118.643L121.097 30.4424ZM122.57 33.6774L121.343 30.9401L120.115 33.6774H122.57Z" fill="white"/>
<path d="M127.97 30.9401H125.925V30.4424H130.588V30.9401H128.543V35.8341H128.052V30.9401H127.97Z" fill="white"/>
<path d="M133.698 30.4424H134.188V35.8341H133.698V30.4424Z" fill="white"/>
<path d="M140.407 35.9999C138.689 35.9999 137.625 34.9216 137.625 33.1797C137.625 31.4377 138.689 30.3594 140.407 30.3594C142.125 30.3594 143.189 31.4377 143.189 33.1797C143.189 34.9216 142.125 35.9999 140.407 35.9999ZM142.616 33.1797C142.616 31.6866 141.798 30.8571 140.325 30.8571C138.853 30.8571 138.034 31.7695 138.034 33.1797C138.034 34.6727 138.853 35.5022 140.325 35.5022C141.798 35.5022 142.616 34.5898 142.616 33.1797Z" fill="white"/>
<path d="M151.535 30.4424V35.8341H150.799L147.117 30.9401V35.8341H146.626V30.4424H147.28L151.044 35.3364V30.4424H151.535Z" fill="white"/>
</g>
<defs>
<clipPath id="clip0_50_76">
<rect width="176" height="36" fill="white"/>
</clipPath>
</defs>
</svg>
