<svg width="151" height="37" viewBox="0 0 151 37" fill="none" xmlns="http://www.w3.org/2000/svg">
<path d="M33.63 37H25.765V21.6H8.44V37H0.63V0.314997H8.44V14.725H25.765V0.314997H33.63V37ZM66.8195 37H40.8595V0.314997H66.8195V7.19H48.6695V14.945H66.4345V21.82H48.6695V30.125H66.8195V37ZM96.2449 37H72.9249V0.314997H80.7349V30.125H96.2449V37ZM109.524 37H101.714V0.314997H109.524V37ZM150.082 37H140.732L131.547 23.58L122.307 37H113.012L126.322 18.19L113.837 0.314997H123.132L131.547 12.855L139.852 0.314997H149.257L136.772 18.135L150.082 37Z" fill="white"/>
</svg>
