<svg width="16" height="19" viewBox="0 0 16 19" fill="none" xmlns="http://www.w3.org/2000/svg">
<path d="M15.3874 13.0579L11.9225 11.3254C11.7745 11.2518 11.61 11.2363 11.4538 11.2812C11.2975 11.3262 11.1581 11.4291 11.0563 11.5745L9.52186 13.7617C7.11371 12.437 5.17569 10.176 4.04027 7.36647L5.91501 5.57629C6.03989 5.45779 6.12828 5.29505 6.1668 5.1127C6.20531 4.93036 6.19186 4.73834 6.12847 4.56571L4.64353 0.523372C4.57396 0.337283 4.45091 0.185348 4.2956 0.0937648C4.1403 0.00218183 3.96247 -0.0233086 3.79278 0.021689L0.575414 0.887904C0.411814 0.931979 0.265849 1.03945 0.161343 1.19277C0.0568377 1.34609 -3.76868e-05 1.53621 1.87356e-08 1.7321C1.87356e-08 10.9898 6.43164 18.4789 14.3544 18.4789C14.5224 18.479 14.6854 18.4127 14.8169 18.2908C14.9484 18.1689 15.0405 17.9985 15.0783 17.8076L15.8208 14.054C15.8591 13.8551 15.8368 13.6468 15.7577 13.465C15.6786 13.2832 15.5476 13.1392 15.3874 13.0579Z" fill="#ffffff"/>
</svg>
