<svg width="114" height="13" fill="none" xmlns="http://www.w3.org/2000/svg"><g clip-path="url(#clip0)" fill="#fff"><path d="M15.473 8.225v.744c0 2.14-1.105 3.412-3.713 3.412H.267a.23.23 0 01-.264-.264V.267A.232.232 0 01.267.003h11.375c2.344 0 3.392.992 3.392 3.184v.317c0 1.13-.317 1.927-1.174 2.35v.248c1.126.407 1.613 1.151 1.613 2.123zM11.29 2.443h-8.5v2.492h8.5c.56 0 1.032-.069 1.032-1.061v-.407c0-1.024-.472-1.024-1.032-1.024zm1.454 5.766c0-.744-.386-1.045-1.174-1.045H2.79v2.761h8.78c.788 0 1.174-.248 1.174-1.025v-.69zm19.324 1.981v1.912a.261.261 0 01-.28.284h-13.91a.26.26 0 01-.281-.284V.288a.26.26 0 01.28-.284h2.243c.174 0 .264.105.264.284v9.638h11.403a.247.247 0 01.28.264zm10.74-.265h-7.983v2.456h7.983V9.925zM31.885 4.957h10.924v2.476H31.885M42.808.003H28.51v2.456h14.297V.003zm46.504 9.922h-7.983v2.456h7.983V9.925zm-7.983-4.968h10.92v2.476H81.33M95.625.003H81.33v2.456h14.296V.003zM45 12.102V.288a.262.262 0 01.169-.27.26.26 0 01.112-.014h2.612c.158 0 .227.069.386.211l9.25 8.845h.244V.288c0-.175.09-.284.264-.284h2.243a.26.26 0 01.28.284v11.814a.26.26 0 01-.28.284h-2.612c-.159 0-.228-.069-.386-.211l-9.25-8.845h-.245v8.772c0 .179-.09.284-.264.284h-2.242a.26.26 0 01-.28-.284zm34.133-8.845v5.892c0 2.034-.946 3.254-3.12 3.254H63.118a.262.262 0 01-.266-.173.258.258 0 01-.014-.112V.288a.258.258 0 01.074-.208.26.26 0 01.206-.076h12.895c2.178 0 3.12 1.22 3.12 3.253zm-2.754.179c0-.728-.33-.992-.975-.992h-9.779v7.482h9.779c.65 0 .963-.248.963-.972l.012-5.518zm36.21 8.946h-2.031a.585.585 0 01-.491-.3l-1.963-2.92h-7.499v2.936c0 .178-.09.284-.264.284h-2.243a.26.26 0 01-.28-.284V.288a.26.26 0 01.28-.284h11.53c2.173 0 3.12 1.22 3.12 3.253V5.96c0 1.521-.544 2.582-1.771 3.005l1.946 2.973c.174.232-.037.443-.334.443zM100.605 6.69h8.377c.65 0 .983-.248.983-.972V3.436c0-.724-.333-.972-.983-.972h-8.377v4.225z"/></g><defs><clipPath id="clip0"><path fill="#fff" d="M0 0h114v13H0z"/></clipPath></defs></svg>