<?xml version="1.0" encoding="iso-8859-1"?>
<svg width="23" height="25" viewBox="0 0 23 25" fill="none" xmlns="http://www.w3.org/2000/svg">
<path d="M20.125 0H2.875C1.28896 0 0 1.40104 0 3.125V21.875C0 23.5979 1.28896 25 2.875 25H20.125C21.7101 25 23 23.5979 23 21.875V3.125C23 1.40104 21.7101 0 20.125 0Z" fill="white"/>
<path d="M15.8125 12.5V9.375C15.8125 8.5125 16.4565 8.59375 17.25 8.59375H18.6875V4.6875H15.8125C13.4301 4.6875 11.5 6.78542 11.5 9.375V12.5H8.625V16.4062H11.5V25H15.8125V16.4062H17.9688L19.4062 12.5H15.8125Z" fill="#17B5B1"/>
</svg>
