<svg width="15" height="13" viewBox="0 0 15 13" fill="none" xmlns="http://www.w3.org/2000/svg">
<path d="M3.06818 13C2.53636 13 2.07273 12.6921 1.84773 12.2474L0.0681818 5.77474L0 5.47368C0 5.29222 0.0718342 5.11819 0.1997 4.98987C0.327566 4.86156 0.500989 4.78947 0.681818 4.78947H3.80455L6.94091 0.294211C7.06364 0.116316 7.26818 0 7.5 0C7.73182 0 7.94318 0.116316 8.06591 0.301053L11.1955 4.78947H14.3182C14.499 4.78947 14.6724 4.86156 14.8003 4.98987C14.9282 5.11819 15 5.29222 15 5.47368L14.9727 5.67211L13.1523 12.2474C12.9273 12.6921 12.4636 13 11.9318 13H3.06818ZM7.5 1.87474L5.45455 4.78947H9.54545L7.5 1.87474ZM7.5 7.52632C7.13834 7.52632 6.7915 7.67049 6.53576 7.92712C6.28003 8.18375 6.13636 8.53181 6.13636 8.89474C6.13636 9.25766 6.28003 9.60573 6.53576 9.86236C6.7915 10.119 7.13834 10.2632 7.5 10.2632C7.86166 10.2632 8.2085 10.119 8.46424 9.86236C8.71997 9.60573 8.86364 9.25766 8.86364 8.89474C8.86364 8.53181 8.71997 8.18375 8.46424 7.92712C8.2085 7.67049 7.86166 7.52632 7.5 7.52632Z" fill="white"/>
</svg>
