<?xml version="1.0" encoding="iso-8859-1"?>
<svg width="27" height="27" viewBox="0 0 27 27" fill="none" xmlns="http://www.w3.org/2000/svg">
<path d="M9.79887 10.9388C9.80522 10.2039 10.5756 9.72662 11.2364 10.0482L16.8121 12.7618C17.5202 13.1065 17.5705 14.0964 16.9011 14.5111L11.2719 17.9982C10.6025 18.4129 9.73856 17.9269 9.74535 17.1394L9.79887 10.9388Z" fill="transparent"/>
<path d="M21.3924 3.94727H5.60755C2.51058 3.94727 0 6.45785 0 9.55482V17.4456C0 20.5426 2.51058 23.0532 5.60755 23.0532H21.3924C24.4894 23.0532 27 20.5426 27 17.4456V9.55482C27 6.45785 24.4894 3.94727 21.3924 3.94727ZM17.6001 13.8841L10.217 17.4054C10.0203 17.4992 9.79301 17.3558 9.79301 17.1379V9.87519C9.79301 9.65415 10.0262 9.51089 10.2234 9.61081L17.6065 13.3522C17.826 13.4634 17.8222 13.7782 17.6001 13.8841Z" fill="white"/>
</svg>
